# xmcd CD database file
#
# Track frame offsets:
#	150
#	13474
#	28197
#	38549
#	55436
#	63924
#	74162
#	91206
#	103380
#	114979
#	129694
#	146722
#	158130
#	170025
#	184278
#	195361
#	211017
#	225825
#	238369
#	249163
#	264727
#	280789
#	291080
#	301817
#	312934
#	326353
#	340671
#
# Disc length: 4729 seconds
#
# Revision: 1
# Processed by: cddbd v1.5.2PL0 Copyright (c) Steve Scherf et al.
# Submitted via: CDex 1.70beta2
#
DISCID=8e12771b
DTITLE=Ella Fitzgerald - Sings Irving Berlin and Duke Ellington_Disc 1
DYEAR=2008
DGENRE=Jazz
TTITLE0=Let's Face The Music and Dance
TTITLE1=You're Laughing At Me
TTITLE2=Let Yourself Go
TTITLE3=You Can Have Him
TTITLE4=Russian Lullaby
TTITLE5=Puttin' On The Ritz
TTITLE6=Get Thee Behind Me, Satin
TTITLE7=Alexander's Ragtime Band
TTITLE8=Top Hat, White Tie and Tails
TTITLE9=How About Me?
TTITLE10=Cheek To Cheek
TTITLE11=I Used To Be Colour Blind
TTITLE12=Lazy
TTITLE13=How Deep Is The Ocean?
TTITLE14=All By Myself
TTITLE15=(You Forgot To) Remember
TTITLE16=Supper Time
TTITLE17=How's Chances
TTITLE18=Heat Wave
TTITLE19=Isn't It A Lovely Day
TTITLE20=You Keep Coming Back Like A Song
TTITLE21=Reaching For The Moon
TTITLE22=(Let's Go) Slumming On Park Avenue
TTITLE23=The Song Is Ended
TTITLE24=I'm Puttin' All My Eggs In One Basket
TTITLE25=Now It Can Be Told
TTITLE26=Always
EXTD=YEAR: 2008
EXTT0=
EXTT1=
EXTT2=
EXTT3=
EXTT4=
EXTT5=
EXTT6=
EXTT7=
EXTT8=
EXTT9=
EXTT10=
EXTT11=
EXTT12=
EXTT13=
EXTT14=
EXTT15=
EXTT16=
EXTT17=
EXTT18=
EXTT19=
EXTT20=
EXTT21=
EXTT22=
EXTT23=
EXTT24=
EXTT25=
EXTT26=
PLAYORDER=
